<?xml version="1.0" encoding="UTF-8" standalone="no"?>
<!-- Created with Inkscape (http://www.inkscape.org/) -->

<svg
   xmlns:dc="http://purl.org/dc/elements/1.1/"
   xmlns:cc="http://creativecommons.org/ns#"
   xmlns:rdf="http://www.w3.org/1999/02/22-rdf-syntax-ns#"
   xmlns:svg="http://www.w3.org/2000/svg"
   xmlns="http://www.w3.org/2000/svg"
   xmlns:sodipodi="http://sodipodi.sourceforge.net/DTD/sodipodi-0.dtd"
   xmlns:inkscape="http://www.inkscape.org/namespaces/inkscape"
   width="300"
   height="300"
   id="svg2"
   version="1.1"
   inkscape:version="0.48.4 r9939"
   sodipodi:docname="Logo-V2.svg"
   inkscape:export-filename="C:\Users\Piotr\Documents\Visual Studio 2013\Projects\GeocachingToolbox\Working\Logo-V2.png"
   inkscape:export-xdpi="300"
   inkscape:export-ydpi="300">
  <defs
     id="defs4" />
  <sodipodi:namedview
     id="base"
     pagecolor="#ffffff"
     bordercolor="#666666"
     borderopacity="1.0"
     inkscape:pageopacity="0.0"
     inkscape:pageshadow="2"
     inkscape:zoom="2"
     inkscape:cx="281.99891"
     inkscape:cy="158.81618"
     inkscape:document-units="px"
     inkscape:current-layer="layer1"
     showgrid="false"
     inkscape:window-width="1920"
     inkscape:window-height="1058"
     inkscape:window-x="1912"
     inkscape:window-y="-8"
     inkscape:window-maximized="1"
     fit-margin-top="0"
     fit-margin-left="0"
     fit-margin-right="0"
     fit-margin-bottom="0" />
  <metadata
     id="metadata7">
    <rdf:RDF>
      <cc:Work
         rdf:about="">
        <dc:format>image/svg+xml</dc:format>
        <dc:type
           rdf:resource="http://purl.org/dc/dcmitype/StillImage" />
        <dc:title></dc:title>
      </cc:Work>
    </rdf:RDF>
  </metadata>
  <g
     inkscape:label="Layer 1"
     inkscape:groupmode="layer"
     id="layer1"
     transform="translate(-87.281247,-372.96924)">
    <g
       id="g3960"
       transform="translate(-4.3434328e-6,-12.999999)">
      <g
         transform="matrix(0.54682397,0,0,0.54682397,39.55377,201.34364)"
         id="g3930">
        <path
           style="fill:#000000;fill-opacity:1;fill-rule:nonzero;stroke:none"
           d="m 233.78125,361.40625 c -7.41806,0.97115 -14.6753,2.40835 -21.78125,4.3125 L 210.78125,388.75 c -7.87756,2.52478 -15.48466,5.68402 -22.75,9.4375 l -17.125,-15.40625 c -6.42708,3.72096 -12.59782,7.86616 -18.46875,12.375 l 7.65625,21.71875 c -6.25396,5.29791 -12.0641,11.11031 -17.375,17.375 l -21.75,-7.65625 c -4.50422,5.86344 -8.6175,12.05454 -12.34375,18.5 L 124,462.1875 c -3.73694,7.2489 -6.88443,14.87165 -9.40625,22.78125 l -23,1.21875 C 89.70782,493.26694 88.28374,500.56586 87.3125,508 l 20.78125,9.9375 c -0.0708,0.85843 -0.13112,1.69963 -0.1875,2.5625 -0.48642,7.44456 -0.40505,14.78092 0.1875,22 l -20.8125,9.96875 c 0.96988,7.41655 2.41001,14.6766 4.3125,21.78125 l 23,1.21875 c 2.52112,7.8662 5.72235,15.46291 9.46875,22.71875 l -15.375,17.125 c 3.72893,6.4412 7.85483,12.64869 12.375,18.53125 l 21.71875,-7.6875 c 5.30027,6.25539 11.0762,12.09467 17.34375,17.40625 L 152.5,665.25 c 5.86195,4.50308 12.02505,8.64948 18.46875,12.375 l 17.09375,-15.40625 c 7.24445,3.735 14.8455,6.88488 22.75,9.40625 l 1.21875,23.03125 c 7.09635,1.89144 14.39094,3.30898 21.84375,4.28125 l 9.9375,-20.75 c 0.85833,0.0709 1.73096,0.13113 2.59375,0.1875 7.44432,0.48642 14.78117,0.40499 22,-0.1875 l 9.9375,20.75 c 7.41668,-0.97116 14.67657,-2.40868 21.78125,-4.3125 l 1.21875,-23 c 7.8863,-2.52757 15.50859,-5.67854 22.78125,-9.4375 l 17.09375,15.375 c 6.42868,-3.72189 12.59652,-7.83361 18.46875,-12.34375 L 352.03125,643.5 c 6.26036,-5.30174 12.05935,-11.10472 17.375,-17.375 l 21.75,7.65625 C 395.6599,627.92009 399.7738,621.75541 403.5,615.3125 l -15.375,-17.15625 c 3.73958,-7.25333 6.88335,-14.86637 9.40625,-22.78125 l 23,-1.21875 c 1.88468,-7.07989 3.31132,-14.34669 4.28125,-21.78125 l -20.78125,-9.90625 c 0.0715,-0.8654 0.13067,-1.72381 0.1875,-2.59375 0.48655,-7.44619 0.43662,-14.81065 -0.15625,-22.03125 l -0.1119,-1.40625 c -40.24216,0 -72.22238,0 -113.7006,0 -3.73712,-9.30205 -11.14087,-16.72671 -20.4375,-20.46875 l 0,-85.71875 c 27.87991,3.1739 52.62736,15.74287 71.28125,34.28125 l 19.65625,-19.625 c -2.80569,-2.78978 -5.71865,-5.4935 -8.75,-8.0625 l 7.625,-21.75 c -5.86345,-4.50422 -12.02329,-8.61751 -18.46875,-12.34375 l -17.09375,15.375 c -7.243,-3.73394 -14.8473,-6.85419 -22.75,-9.375 l -1.21875,-23 c -7.09654,-1.89155 -14.39073,-3.34017 -21.84375,-4.3125 l -9.9375,20.78125 c -0.85496,-0.0705 -1.70312,-0.1626 -2.5625,-0.21875 -7.44457,-0.48642 -14.81218,-0.40505 -22.03125,0.1875 z m 8.53125,48.84375 0,85.71875 c -9.30384,3.74256 -16.72619,11.16491 -20.46875,20.46875 l -85.6875,0 c 6.4157,-56.36103 51.12712,-99.93882 106.15625,-106.1875 z m 13.75,104.78125 c 8.36838,0 15.125,6.78787 15.125,15.15625 0,8.36838 -6.75662,15.15625 -15.125,15.15625 -8.36838,0 -15.15625,-6.78787 -15.15625,-15.15625 0,-8.36838 6.78787,-15.15625 15.15625,-15.15625 z m -119.9375,28.90625 85.71875,0 c 3.74465,9.30905 11.15936,16.759 20.46875,20.5 l 0,85.6875 C 185.95965,643.6944 142.36218,598.96811 136.125,543.9375 z m 154.125,0 85.71875,0 c -6.41396,56.3698 -51.12342,99.97954 -106.15625,106.21875 l 0,-85.75 c 9.28458,-3.74626 16.70308,-11.1734 20.4375,-20.46875 z"
           id="path2987"
           inkscape:connector-curvature="0"
           sodipodi:nodetypes="cccccccccccccccsccccccccccccccccsccccccccccccccccccccccccccccccccscccccccssssscccccccccc" />
        <path
           style="fill:#000000;fill-opacity:1;fill-rule:nonzero;stroke:none"
           d="m 385.90387,361.4364 0,50 200,0 50,-25 -50,-25 -200,0 z"
           id="rect3921"
           inkscape:connector-curvature="0" />
        <rect
           style="fill:#000000;fill-opacity:1;fill-rule:nonzero;stroke:none"
           id="rect3926"
           width="39.59798"
           height="301.38794"
           x="479.4184"
           y="397.5813" />
      </g>
      <text
         sodipodi:linespacing="125%"
         id="text3935"
         y="624.34033"
         x="85.309319"
         style="font-size:42.87733459px;font-style:normal;font-variant:normal;font-weight:normal;font-stretch:normal;line-height:125%;letter-spacing:0px;word-spacing:0px;fill:#000000;fill-opacity:1;stroke:none;font-family:Montserrat;-inkscape-font-specification:Montserrat"
         xml:space="preserve"><tspan
           style="font-weight:bold;-inkscape-font-specification:Montserrat Bold"
           y="624.34033"
           x="85.309319"
           id="tspan3937"
           sodipodi:role="line">GEOCACHING</tspan></text>
      <text
         sodipodi:linespacing="125%"
         id="text3935-8"
         y="672.54999"
         x="85.600594"
         style="font-size:59.99121475px;font-style:normal;font-variant:normal;font-weight:normal;font-stretch:normal;line-height:125%;letter-spacing:0px;word-spacing:0px;fill:#000000;fill-opacity:1;stroke:none;font-family:Montserrat;-inkscape-font-specification:Montserrat"
         xml:space="preserve"><tspan
           style="font-weight:bold;-inkscape-font-specification:Montserrat Bold"
           y="672.54999"
           x="85.600594"
           id="tspan3937-2"
           sodipodi:role="line">TOOLBOX</tspan></text>
    </g>
  </g>
</svg>
